<svg width="2989" height="2527" viewBox="0 0 2989 2527" fill="none" xmlns="http://www.w3.org/2000/svg">
<mask id="mask0" mask-type="alpha" maskUnits="userSpaceOnUse" x="0" y="0" width="2989" height="2528">
<path fill-rule="evenodd" clip-rule="evenodd" d="M1533.17 0.271208C1917.32 -8.70253 2247.2 206.378 2515.09 443.063C2778.46 675.758 2987.53 961.999 2988.99 1286.54C2990.46 1612.15 2791.84 1907.26 2522.71 2136.57C2254.81 2364.83 1910.5 2524.86 1533.17 2526.98C1153.57 2529.11 806.86 2371.39 530.577 2147.77C244.566 1916.28 -14.1623 1623.87 0.602777 1286.54C15.0304 956.924 328.584 718.24 603.239 487.724C873.252 261.104 1155.81 9.08632 1533.17 0.271208Z" fill="#FDCF84"/>
<path fill-rule="evenodd" clip-rule="evenodd" d="M1533.17 0.271208C1917.32 -8.70253 2247.2 206.378 2515.09 443.063C2778.46 675.758 2987.53 961.999 2988.99 1286.54C2990.46 1612.15 2791.84 1907.26 2522.71 2136.57C2254.81 2364.83 1910.5 2524.86 1533.17 2526.98C1153.57 2529.11 806.86 2371.39 530.577 2147.77C244.566 1916.28 -14.1623 1623.87 0.602777 1286.54C15.0304 956.924 328.584 718.24 603.239 487.724C873.252 261.104 1155.81 9.08632 1533.17 0.271208Z" fill="url(#paint0_linear)"/>
</mask>
<g mask="url(#mask0)">
<path fill-rule="evenodd" clip-rule="evenodd" d="M1533.17 0.271208C1917.32 -8.70253 2247.2 206.378 2515.09 443.063C2778.46 675.758 2987.53 961.999 2988.99 1286.54C2990.46 1612.15 2791.84 1907.26 2522.71 2136.57C2254.81 2364.83 1910.5 2524.86 1533.17 2526.98C1153.57 2529.11 806.86 2371.39 530.577 2147.77C244.566 1916.28 -14.1623 1623.87 0.602777 1286.54C15.0304 956.924 328.584 718.24 603.239 487.724C873.252 261.104 1155.81 9.08632 1533.17 0.271208Z" fill="#FDCF84"/>
<path fill-rule="evenodd" clip-rule="evenodd" d="M1533.17 0.271208C1917.32 -8.70253 2247.2 206.378 2515.09 443.063C2778.46 675.758 2987.53 961.999 2988.99 1286.54C2990.46 1612.15 2791.84 1907.26 2522.71 2136.57C2254.81 2364.83 1910.5 2524.86 1533.17 2526.98C1153.57 2529.11 806.86 2371.39 530.577 2147.77C244.566 1916.28 -14.1623 1623.87 0.602777 1286.54C15.0304 956.924 328.584 718.24 603.239 487.724C873.252 261.104 1155.81 9.08632 1533.17 0.271208Z" fill="url(#paint1_linear)"/>
<rect x="1372" y="519" width="64" height="64" fill="#715B4D"/>
<rect x="1436" y="519" width="64" height="64" fill="#433029"/>
<rect x="1500" y="519" width="64" height="64" fill="#3E2B24"/>
<rect x="1564" y="519" width="64" height="64" fill="#4A3730"/>
<rect x="1628" y="519" width="64" height="64" fill="#806A53"/>
<rect x="1180" y="583" width="64" height="64" fill="#6B533B"/>
<rect x="1244" y="583" width="64" height="64" fill="#574737"/>
<rect x="1308" y="583" width="64" height="64" fill="#392A23"/>
<rect x="1372" y="583" width="64" height="64" fill="#372821"/>
<rect x="1436" y="583" width="64" height="64" fill="#4C3B33"/>
<rect x="1500" y="583" width="64" height="64" fill="#31221B"/>
<rect x="1564" y="583" width="64" height="64" fill="#503D36"/>
<rect x="1628" y="583" width="64" height="64" fill="#413029"/>
<rect x="1692" y="583" width="64" height="64" fill="#3B2821"/>
<rect x="1756" y="583" width="64" height="64" fill="#685245"/>
<rect x="1116" y="647" width="64" height="64" fill="#5C4D3A"/>
<rect x="1180" y="647" width="64" height="64" fill="#3C2E2B"/>
<rect x="1244" y="647" width="64" height="64" fill="#2D1F1C"/>
<rect x="1308" y="647" width="64" height="64" fill="#322421"/>
<rect x="1372" y="647" width="64" height="64" fill="#362720"/>
<rect x="1436" y="647" width="64" height="64" fill="#30221F"/>
<rect x="1500" y="647" width="64" height="64" fill="#3E2C2A"/>
<rect x="1564" y="647" width="64" height="64" fill="#2E1C1A"/>
<rect x="1628" y="647" width="64" height="64" fill="#33211F"/>
<rect x="1692" y="647" width="64" height="64" fill="#2E1C18"/>
<rect x="1756" y="647" width="64" height="64" fill="#34221E"/>
<rect x="1820" y="647" width="64" height="64" fill="#5A4739"/>
<rect x="1052" y="711" width="64" height="64" fill="#60513E"/>
<rect x="1116" y="711" width="64" height="64" fill="#2C1F19"/>
<rect x="1180" y="711" width="64" height="64" fill="#3B2C25"/>
<rect x="1244" y="711" width="64" height="64" fill="#3D302A"/>
<rect x="1308" y="711" width="64" height="64" fill="#3B2E28"/>
<rect x="1372" y="711" width="64" height="64" fill="#30221F"/>
<rect x="1436" y="711" width="64" height="64" fill="#2D1F1C"/>
<rect x="1500" y="711" width="64" height="64" fill="#32201E"/>
<rect x="1564" y="711" width="64" height="64" fill="#332323"/>
<rect x="1628" y="711" width="64" height="64" fill="#35211A"/>
<rect x="1692" y="711" width="64" height="64" fill="#432F28"/>
<rect x="1756" y="711" width="64" height="64" fill="#442D27"/>
<rect x="1820" y="711" width="64" height="64" fill="#3E2924"/>
<rect x="1884" y="711" width="64" height="64" fill="#45312A"/>
<rect x="1052" y="775" width="64" height="64" fill="#45342C"/>
<rect x="1116" y="775" width="64" height="64" fill="#34261D"/>
<rect x="1180" y="775" width="64" height="64" fill="#3C2821"/>
<rect x="1244" y="775" width="64" height="64" fill="#422F29"/>
<rect x="1308" y="775" width="64" height="64" fill="#422E25"/>
<rect x="1372" y="775" width="64" height="64" fill="#34211B"/>
<rect x="1436" y="775" width="64" height="64" fill="#3C2821"/>
<rect x="1500" y="775" width="64" height="64" fill="#694C3E"/>
<rect x="1564" y="775" width="64" height="64" fill="#BA8462"/>
<rect x="1628" y="775" width="64" height="64" fill="#CC9171"/>
<rect x="1692" y="775" width="64" height="64" fill="#CB8F6A"/>
<rect x="1756" y="775" width="64" height="64" fill="#BE8361"/>
<rect x="1820" y="775" width="64" height="64" fill="#634636"/>
<rect x="1884" y="775" width="64" height="64" fill="#3A2721"/>
<rect x="1948" y="775" width="64" height="64" fill="#6C5A46"/>
<rect x="1052" y="839" width="64" height="64" fill="#30211A"/>
<rect x="1116" y="839" width="64" height="64" fill="#55392B"/>
<rect x="1180" y="839" width="64" height="64" fill="#AF754F"/>
<rect x="1244" y="839" width="64" height="64" fill="#C38560"/>
<rect x="1308" y="839" width="64" height="64" fill="#CC8E69"/>
<rect x="1372" y="839" width="64" height="64" fill="#CE9270"/>
<rect x="1436" y="839" width="64" height="64" fill="#D29571"/>
<rect x="1500" y="839" width="64" height="64" fill="#D99878"/>
<rect x="1564" y="839" width="64" height="64" fill="#DA9B7A"/>
<rect x="1628" y="839" width="64" height="64" fill="#D99A79"/>
<rect x="1692" y="839" width="64" height="64" fill="#D5946D"/>
<rect x="1756" y="839" width="64" height="64" fill="#CD8863"/>
<rect x="1820" y="839" width="64" height="64" fill="#BE825E"/>
<rect x="1884" y="839" width="64" height="64" fill="#422E27"/>
<rect x="1948" y="839" width="64" height="64" fill="#3C231E"/>
<rect x="988" y="903" width="64" height="64" fill="#574231"/>
<rect x="2012" y="903" width="64" height="64" fill="#574231"/>
<rect x="1052" y="903" width="64" height="64" fill="#472F25"/>
<rect x="1116" y="903" width="64" height="64" fill="#B27755"/>
<rect x="1180" y="903" width="64" height="64" fill="#BF7F59"/>
<rect x="1244" y="903" width="64" height="64" fill="#CC8764"/>
<rect x="1308" y="903" width="64" height="64" fill="#D08D6A"/>
<rect x="1372" y="903" width="64" height="64" fill="#D99A77"/>
<rect x="1436" y="903" width="64" height="64" fill="#D99A79"/>
<rect x="1500" y="903" width="64" height="64" fill="#D89C7A"/>
<rect x="1564" y="903" width="64" height="64" fill="#DC9D7C"/>
<rect x="1628" y="903" width="64" height="64" fill="#DA9A76"/>
<rect x="1692" y="903" width="64" height="64" fill="#DA9470"/>
<rect x="1756" y="903" width="64" height="64" fill="#D18B64"/>
<rect x="1820" y="903" width="64" height="64" fill="#C68662"/>
<rect x="1884" y="903" width="64" height="64" fill="#9B694E"/>
<rect x="1948" y="903" width="64" height="64" fill="#47352B"/>
<rect x="988" y="967" width="64" height="64" fill="#614E3F"/>
<rect x="2012" y="967" width="64" height="64" fill="#614E3F"/>
<rect x="1052" y="967" width="64" height="64" fill="#876349"/>
<rect x="1116" y="967" width="64" height="64" fill="#B17551"/>
<rect x="1180" y="967" width="64" height="64" fill="#BF7E58"/>
<rect x="1244" y="967" width="64" height="64" fill="#C8825E"/>
<rect x="1308" y="967" width="64" height="64" fill="#D58F6A"/>
<rect x="1372" y="967" width="64" height="64" fill="#D4926C"/>
<rect x="1436" y="967" width="64" height="64" fill="#DA9B7A"/>
<rect x="1500" y="967" width="64" height="64" fill="#D99D7B"/>
<rect x="1564" y="967" width="64" height="64" fill="#D99A79"/>
<rect x="1628" y="967" width="64" height="64" fill="#DC9776"/>
<rect x="1692" y="967" width="64" height="64" fill="#D48F6A"/>
<rect x="1756" y="967" width="64" height="64" fill="#CB875D"/>
<rect x="1820" y="967" width="64" height="64" fill="#C68462"/>
<rect x="1884" y="967" width="64" height="64" fill="#A87250"/>
<rect x="1948" y="967" width="64" height="64" fill="#5A463B"/>
<rect x="988" y="1031" width="64" height="64" fill="#503F2F"/>
<rect x="2012" y="1031" width="64" height="64" fill="#503F2F"/>
<rect x="1052" y="1031" width="64" height="64" fill="#70513F"/>
<rect x="1116" y="1031" width="64" height="64" fill="#A96E4E"/>
<rect x="1180" y="1031" width="64" height="64" fill="#BF8056"/>
<rect x="1244" y="1031" width="64" height="64" fill="#C8825E"/>
<rect x="1308" y="1031" width="64" height="64" fill="#D08B66"/>
<rect x="1372" y="1031" width="64" height="64" fill="#D59370"/>
<rect x="1436" y="1031" width="64" height="64" fill="#D59878"/>
<rect x="1500" y="1031" width="64" height="64" fill="#DC9D7C"/>
<rect x="1564" y="1031" width="64" height="64" fill="#DA9D7E"/>
<rect x="1564" y="1159" width="64" height="64" fill="#DA9D7E"/>
<rect x="1628" y="1031" width="64" height="64" fill="#D49173"/>
<rect x="1692" y="1031" width="64" height="64" fill="#D89173"/>
<rect x="1756" y="1031" width="64" height="64" fill="#CC8C68"/>
<rect x="1820" y="1031" width="64" height="64" fill="#BE7E5A"/>
<rect x="1884" y="1031" width="64" height="64" fill="#8F5F48"/>
<rect x="1948" y="1031" width="64" height="64" fill="#614E40"/>
<rect x="988" y="1095" width="64" height="64" fill="#4A3931"/>
<rect x="2012" y="1095" width="64" height="64" fill="#4A3931"/>
<rect x="1052" y="1095" width="64" height="64" fill="#503A2D"/>
<rect x="1116" y="1095" width="64" height="64" fill="#A6694A"/>
<rect x="1180" y="1095" width="64" height="64" fill="#BC7C58"/>
<rect x="1244" y="1159" width="64" height="64" fill="#BC7C58"/>
<rect x="1244" y="1159" width="64" height="64" fill="#7E5342"/>
<rect x="1308" y="1159" width="64" height="64" fill="#744F3D"/>
<rect x="1372" y="1095" width="64" height="64" fill="#D6947A"/>
<rect x="1308" y="1159" width="64" height="64" fill="#D6947A"/>
<rect x="1436" y="1095" width="64" height="64" fill="#D59878"/>
<rect x="1500" y="1095" width="64" height="64" fill="#D99C80"/>
<rect x="1628" y="1095" width="64" height="64" fill="#D99C80"/>
<rect x="1564" y="1095" width="64" height="64" fill="#D9987C"/>
<rect x="1564" y="1223" width="64" height="64" fill="#D9987C"/>
<rect x="1820" y="1095" width="64" height="64" fill="#B17658"/>
<rect x="1884" y="1095" width="64" height="64" fill="#A87556"/>
<rect x="1948" y="1095" width="64" height="64" fill="#5E483B"/>
<rect x="988" y="1159" width="64" height="64" fill="#91755F"/>
<rect x="2012" y="1159" width="64" height="64" fill="#91755F"/>
<rect x="1052" y="1159" width="64" height="64" fill="#443329"/>
<rect x="1116" y="1159" width="64" height="64" fill="#AD7954"/>
<rect x="1372" y="1159" width="64" height="64" fill="#8F5F4B"/>
<rect x="1628" y="1159" width="64" height="64" fill="#8F5F4B"/>
<rect x="1244" y="1159" width="64" height="64" fill="#402722"/>
<rect x="1756" y="1159" width="64" height="64" fill="#402722"/>
<rect x="1692" y="1159" width="64" height="64" fill="#35201B"/>
<rect x="1308" y="1159" width="64" height="64" fill="#35201B"/>
<rect x="1436" y="1159" width="64" height="64" fill="#CB8969"/>
<rect x="1564" y="1159" width="64" height="64" fill="#CB8969"/>
<rect x="1436" y="1159" width="64" height="64" fill="#CB8969"/>
<rect x="1500" y="1159" width="64" height="64" fill="#D28B71"/>
<rect x="1884" y="1159" width="64" height="64" fill="#B18062"/>
<rect x="1948" y="1159" width="64" height="64" fill="#5B4434"/>
<rect x="988" y="1223" width="64" height="64" fill="#B47E66"/>
<rect x="1052" y="1223" width="64" height="64" fill="#493828"/>
<rect x="1948" y="1223" width="64" height="64" fill="#493828"/>
<rect x="1116" y="1223" width="64" height="64" fill="#9D6F55"/>
<rect x="1180" y="1223" width="64" height="64" fill="#A67152"/>
<rect x="1436" y="1223" width="64" height="64" fill="#A2614B"/>
<rect x="1564" y="1223" width="64" height="64" fill="#A2614B"/>
<rect x="1500" y="1223" width="64" height="64" fill="#D99878"/>
<rect x="1628" y="1223" width="64" height="64" fill="#895540"/>
<rect x="1756" y="1223" width="64" height="64" fill="#D4C4BE"/>
<rect x="1628" y="1223" width="64" height="64" fill="#D4C4BE"/>
<rect x="1692" y="1223" width="64" height="64" fill="#67473C"/>
<rect x="1820" y="1223" width="64" height="64" fill="#AC6E57"/>
<rect x="1884" y="1223" width="64" height="64" fill="#BC8B6B"/>
<rect x="2012" y="1223" width="64" height="64" fill="#D5755C"/>
<rect x="988" y="1287" width="64" height="64" fill="#A94B38"/>
<rect x="988" y="1287" width="64" height="64" fill="#D5755C"/>
<rect x="988" y="1351" width="64" height="64" fill="#E07E6B"/>
<rect x="1052" y="1287" width="64" height="64" fill="#6D4E39"/>
<rect x="1948" y="1287" width="64" height="64" fill="#6D4E39"/>
<rect x="1116" y="1287" width="64" height="64" fill="#AB7654"/>
<rect x="1180" y="1287" width="64" height="64" fill="#8A523B"/>
<rect x="1820" y="1287" width="64" height="64" fill="#8A523B"/>
<rect x="1244" y="1287" width="64" height="64" fill="#975D47"/>
<rect x="1308" y="1287" width="64" height="64" fill="#B36F58"/>
<rect x="1244" y="1287" width="64" height="64" fill="#B36F58"/>
<rect x="1692" y="1287" width="64" height="64" fill="#B36F58"/>
<rect x="1756" y="1287" width="64" height="64" fill="#B36F58"/>
<rect x="1372" y="1287" width="64" height="64" fill="#AC6851"/>
<rect x="1628" y="1287" width="64" height="64" fill="#AC6851"/>
<rect x="1436" y="1287" width="64" height="64" fill="#BC7D5C"/>
<rect x="1564" y="1287" width="64" height="64" fill="#BC7D5C"/>
<rect x="1500" y="1287" width="64" height="64" fill="#D49573"/>
<rect x="1820" y="1287" width="64" height="64" fill="#BC8567"/>
<rect x="1180" y="1287" width="64" height="64" fill="#BC8567"/>
<rect x="1884" y="1287" width="64" height="64" fill="#BB8666"/>
<rect x="2012" y="1287" width="64" height="64" fill="#E07E6B"/>
<rect x="988" y="1351" width="64" height="64" fill="#C16F59"/>
<rect x="1052" y="1351" width="64" height="64" fill="#A8755A"/>
<rect x="1116" y="1351" width="64" height="64" fill="#B57F5D"/>
<rect x="1180" y="1351" width="64" height="64" fill="#B97F5A"/>
<rect x="1244" y="1351" width="64" height="64" fill="#B67756"/>
<rect x="1308" y="1351" width="64" height="64" fill="#C38065"/>
<rect x="1372" y="1351" width="64" height="64" fill="#C68569"/>
<rect x="1436" y="1351" width="64" height="64" fill="#BC7D5C"/>
<rect x="1564" y="1351" width="64" height="64" fill="#BC7D5C"/>
<rect x="1500" y="1351" width="64" height="64" fill="#CB886B"/>
<rect x="1628" y="1351" width="64" height="64" fill="#C78A6B"/>
<rect x="1692" y="1351" width="64" height="64" fill="#CA8D71"/>
<rect x="1756" y="1351" width="64" height="64" fill="#D08F73"/>
<rect x="1820" y="1351" width="64" height="64" fill="#CB8A6E"/>
<rect x="1884" y="1351" width="64" height="64" fill="#BF896D"/>
<rect x="1948" y="1351" width="64" height="64" fill="#CF9476"/>
<rect x="2012" y="1351" width="64" height="64" fill="#E8C3AB"/>
<rect x="1052" y="1415" width="64" height="64" fill="#A77252"/>
<rect x="1116" y="1415" width="64" height="64" fill="#B28161"/>
<rect x="1180" y="1415" width="64" height="64" fill="#C17F5F"/>
<rect x="1244" y="1415" width="64" height="64" fill="#D18669"/>
<rect x="1308" y="1415" width="64" height="64" fill="#CE8C6C"/>
<rect x="1372" y="1415" width="64" height="64" fill="#CE8D6D"/>
<rect x="1436" y="1415" width="64" height="64" fill="#B57458"/>
<rect x="1564" y="1415" width="64" height="64" fill="#B57458"/>
<rect x="1500" y="1415" width="64" height="64" fill="#D39070"/>
<rect x="1628" y="1415" width="64" height="64" fill="#C48262"/>
<rect x="1692" y="1415" width="64" height="64" fill="#DB987E"/>
<rect x="1756" y="1415" width="64" height="64" fill="#D88E75"/>
<rect x="1820" y="1415" width="64" height="64" fill="#C68369"/>
<rect x="1884" y="1415" width="64" height="64" fill="#B8846C"/>
<rect x="1948" y="1415" width="64" height="64" fill="#CB7E64"/>
<rect x="1052" y="1479" width="64" height="64" fill="#AA644B"/>
<rect x="1116" y="1479" width="64" height="64" fill="#AF8462"/>
<rect x="1180" y="1479" width="64" height="64" fill="#B47856"/>
<rect x="1244" y="1479" width="64" height="64" fill="#CE866D"/>
<rect x="1308" y="1479" width="64" height="64" fill="#D18E6E"/>
<rect x="1372" y="1479" width="64" height="64" fill="#C98A67"/>
<rect x="1436" y="1479" width="64" height="64" fill="#C38669"/>
<rect x="1500" y="1479" width="64" height="64" fill="#D49B7F"/>
<rect x="1564" y="1479" width="64" height="64" fill="#C88B6E"/>
<rect x="1628" y="1479" width="64" height="64" fill="#C6846A"/>
<rect x="1692" y="1479" width="64" height="64" fill="#CF8E72"/>
<rect x="1756" y="1479" width="64" height="64" fill="#D18B6E"/>
<rect x="1820" y="1479" width="64" height="64" fill="#BF8367"/>
<rect x="1884" y="1479" width="64" height="64" fill="#A0765E"/>
<rect x="1948" y="1479" width="64" height="64" fill="#CA8D70"/>
<rect x="1052" y="1543" width="64" height="64" fill="#B77F5E"/>
<rect x="1116" y="1543" width="64" height="64" fill="#815D45"/>
<rect x="1180" y="1543" width="64" height="64" fill="#A37051"/>
<rect x="1244" y="1543" width="64" height="64" fill="#C68464"/>
<rect x="1308" y="1543" width="64" height="64" fill="#C98767"/>
<rect x="1372" y="1543" width="64" height="64" fill="#C18060"/>
<rect x="1436" y="1543" width="64" height="64" fill="#643629"/>
<rect x="1564" y="1543" width="64" height="64" fill="#643629"/>
<rect x="1436" y="1607" width="64" height="64" fill="#855740"/>
<rect x="1500" y="1543" width="64" height="64" fill="#6F4632"/>
<rect x="1500" y="1607" width="64" height="64" fill="#7E513C"/>
<rect x="1564" y="1607" width="64" height="64" fill="#855740"/>
<rect x="1628" y="1607" width="64" height="64" fill="#855740"/>
<rect x="1692" y="1671" width="64" height="64" fill="#643629"/>
<rect x="1628" y="1671" width="64" height="64" fill="#7E513C"/>
<rect x="1692" y="1735" width="64" height="64" fill="#643629"/>
<rect x="1372" y="1607" width="64" height="64" fill="#855740"/>
<rect x="1308" y="1671" width="64" height="64" fill="#855740"/>
<rect x="1308" y="1671" width="64" height="64" fill="#7F533A"/>
<rect x="1372" y="1671" width="64" height="64" fill="#7E513C"/>
<rect x="1308" y="1735" width="64" height="64" fill="#643629"/>
<rect x="1628" y="1543" width="64" height="64" fill="#B87558"/>
<rect x="1692" y="1543" width="64" height="64" fill="#CD8C6C"/>
<rect x="1756" y="1543" width="64" height="64" fill="#CE8D6D"/>
<rect x="1820" y="1543" width="64" height="64" fill="#B17C5D"/>
<rect x="1884" y="1543" width="64" height="64" fill="#87624F"/>
<rect x="1116" y="1607" width="64" height="64" fill="#755D45"/>
<rect x="1180" y="1607" width="64" height="64" fill="#A57859"/>
<rect x="1244" y="1607" width="64" height="64" fill="#BD8260"/>
<rect x="1308" y="1607" width="64" height="64" fill="#BB855F"/>
<rect x="1692" y="1607" width="64" height="64" fill="#BB855F"/>
<rect x="1756" y="1607" width="64" height="64" fill="#C58665"/>
<rect x="1820" y="1607" width="64" height="64" fill="#A17359"/>
<rect x="1884" y="1607" width="64" height="64" fill="#997658"/>
<rect x="1180" y="1671" width="64" height="64" fill="#84644B"/>
<rect x="1500" y="1799" width="64" height="64" fill="#84644B"/>
<rect x="1244" y="1735" width="64" height="64" fill="#84644B"/>
<rect x="1308" y="1799" width="64" height="64" fill="#84644B"/>
<rect x="1372" y="1991" width="64" height="64" fill="#84644B"/>
<rect x="1244" y="1671" width="64" height="64" fill="#B17B57"/>
<rect x="1308" y="1735" width="64" height="64" fill="#B17B57"/>
<rect x="1436" y="1735" width="64" height="64" fill="#7E513C"/>
<rect x="1436" y="1735" width="64" height="64" fill="#7E513C"/>
<rect x="1564" y="1735" width="64" height="64" fill="#7E513C"/>
<rect x="1436" y="1671" width="64" height="64" fill="#7E513C"/>
<rect x="1500" y="1671" width="64" height="64" fill="#7E513C"/>
<rect x="1564" y="1671" width="64" height="64" fill="#7E513C"/>
<rect x="1564" y="1671" width="64" height="64" fill="#A75C49"/>
<rect x="1564" y="1735" width="64" height="64" fill="#A45840"/>
<rect x="1500" y="1735" width="64" height="64" fill="#A45840"/>
<rect x="1500" y="1671" width="64" height="64" fill="#A45840"/>
<rect x="1436" y="1671" width="64" height="64" fill="#A06249"/>
<rect x="1436" y="1735" width="64" height="64" fill="#A45840"/>
<rect x="1756" y="1671" width="64" height="64" fill="#AC6C50"/>
<rect x="1692" y="1671" width="64" height="64" fill="#7F533A"/>
<rect x="1820" y="1671" width="64" height="64" fill="#906751"/>
<rect x="1180" y="1735" width="64" height="64" fill="#705840"/>
<rect x="1244" y="1799" width="64" height="64" fill="#705840"/>
<rect x="1372" y="1735" width="64" height="64" fill="#AB754F"/>
<rect x="1628" y="1735" width="64" height="64" fill="#B77253"/>
<rect x="1756" y="1735" width="64" height="64" fill="#84644B"/>
<rect x="1820" y="1735" width="64" height="64" fill="#795942"/>
<rect x="1372" y="1799" width="64" height="64" fill="#BA7E59"/>
<rect x="1372" y="1735" width="64" height="64" fill="#BA7E59"/>
<rect x="1564" y="1799" width="64" height="64" fill="#975A3A"/>
<rect x="1628" y="1735" width="64" height="64" fill="#975A3A"/>
<rect x="1372" y="1735" width="64" height="64" fill="#975A3A"/>
<rect x="1500" y="1735" width="64" height="64" fill="#975A3A"/>
<rect x="1436" y="1799" width="64" height="64" fill="#975A3A"/>
<rect x="1436" y="1799" width="64" height="64" fill="#975A3A"/>
<rect x="1564" y="1799" width="64" height="64" fill="#975A3A"/>
<rect x="1628" y="1799" width="64" height="64" fill="#BD7F5A"/>
<rect x="1692" y="1799" width="64" height="64" fill="#A46D4E"/>
<rect x="1756" y="1799" width="64" height="64" fill="#AB7A5A"/>
<rect x="1692" y="1735" width="64" height="64" fill="#AB7A5A"/>
<rect x="1820" y="1799" width="64" height="64" fill="#73503D"/>
<rect x="1180" y="1799" width="64" height="64" fill="#73503D"/>
<rect x="1180" y="1863" width="64" height="64" fill="#B49276"/>
<rect x="1244" y="1863" width="64" height="64" fill="#7D5941"/>
<rect x="1372" y="1927" width="64" height="64" fill="#7D5941"/>
<rect x="1308" y="1863" width="64" height="64" fill="#7D5941"/>
<rect x="1436" y="1927" width="64" height="64" fill="#7D5941"/>
<rect x="1372" y="1863" width="64" height="64" fill="#BD835E"/>
<rect x="1432" y="1799" width="64" height="64" fill="#BD835E"/>
<rect x="1436" y="1863" width="64" height="64" fill="#C28765"/>
<rect x="1500" y="1863" width="64" height="64" fill="#BE7C5A"/>
<rect x="1564" y="1863" width="64" height="64" fill="#C68569"/>
<rect x="1564" y="1799" width="64" height="64" fill="#975A3A"/>
<rect x="1628" y="1863" width="64" height="64" fill="#C28765"/>
<rect x="1564" y="1799" width="64" height="64" fill="#C28765"/>
<rect x="1692" y="1863" width="64" height="64" fill="#A07354"/>
<rect x="1756" y="1863" width="64" height="64" fill="#715540"/>
<rect x="1820" y="1863" width="64" height="64" fill="#AE7355"/>
<rect x="1116" y="1927" width="64" height="64" fill="#CCB89D"/>
<rect x="1180" y="1927" width="64" height="64" fill="#B59981"/>
<rect x="1244" y="1927" width="64" height="64" fill="#956446"/>
<rect x="1756" y="1927" width="64" height="64" fill="#956446"/>
<rect x="1308" y="1927" width="64" height="64" fill="#6D4F37"/>
<rect x="1628" y="1927" width="64" height="64" fill="#6D4F37"/>
<rect x="1500" y="1927" width="64" height="64" fill="#6D4F37"/>
<rect x="1372" y="1927" width="64" height="64" fill="#664D39"/>
<rect x="1692" y="1927" width="64" height="64" fill="#664D39"/>
<rect x="1564" y="1927" width="64" height="64" fill="#664D39"/>
<rect x="1436" y="1927" width="64" height="64" fill="#905C46"/>
<rect x="1628" y="1927" width="64" height="64" fill="#905C46"/>
<rect x="1500" y="1927" width="64" height="64" fill="#976750"/>
<rect x="1564" y="1927" width="64" height="64" fill="#986957"/>
<rect x="1628" y="1927" width="64" height="64" fill="#855C46"/>
<rect x="1756" y="1927" width="64" height="64" fill="#985F44"/>
<rect x="1820" y="1927" width="64" height="64" fill="#B87958"/>
<rect x="1884" y="1927" width="64" height="64" fill="#D0AC96"/>
<rect x="988" y="1991" width="64" height="64" fill="#D0BCA3"/>
<rect x="1052" y="1991" width="64" height="64" fill="#D2BEA5"/>
<rect x="1116" y="1991" width="64" height="64" fill="#CBB79E"/>
<rect x="1180" y="1991" width="64" height="64" fill="#C7B297"/>
<rect x="1244" y="1991" width="64" height="64" fill="#9F684A"/>
<rect x="1308" y="1991" width="64" height="64" fill="#825132"/>
<rect x="1372" y="1991" width="64" height="64" fill="#6D4B32"/>
<rect x="1432" y="1991" width="64" height="64" fill="#6D4B32"/>
<rect x="1628" y="1991" width="64" height="64" fill="#6D4B32"/>
<rect x="1436" y="1991" width="64" height="64" fill="#4B352A"/>
<rect x="1308" y="1991" width="64" height="64" fill="#4B352A"/>
<rect x="1756" y="1863" width="64" height="64" fill="#715540"/>
<rect x="1244" y="1863" width="64" height="64" fill="#7D5941"/>
<rect x="1820" y="1735" width="64" height="64" fill="#705840"/>
<rect x="1500" y="1991" width="64" height="64" fill="#513F35"/>
<rect x="1564" y="1991" width="64" height="64" fill="#422C21"/>
<rect x="1692" y="1991" width="64" height="64" fill="#955B43"/>
<rect x="1756" y="1991" width="64" height="64" fill="#B27352"/>
<rect x="1820" y="1991" width="64" height="64" fill="#B07150"/>
<rect x="1884" y="1991" width="64" height="64" fill="#D3B6A4"/>
<rect x="1948" y="1991" width="64" height="64" fill="#D4B9A6"/>
<rect x="860" y="2055" width="64" height="64" fill="#CBB79F"/>
<rect x="2140" y="2055" width="64" height="64" fill="#CBB79F"/>
<rect x="924" y="2055" width="64" height="64" fill="#C9B59C"/>
<rect x="988" y="2055" width="64" height="64" fill="#D0BCA3"/>
<rect x="1052" y="2055" width="64" height="64" fill="#D1BDA4"/>
<rect x="1116" y="2055" width="64" height="64" fill="#C9B79F"/>
<rect x="1180" y="2055" width="64" height="64" fill="#D0BCA3"/>
<rect x="1244" y="2055" width="64" height="64" fill="#9B6244"/>
<rect x="1308" y="2055" width="64" height="64" fill="#A96E50"/>
<rect x="1308" y="1991" width="64" height="64" fill="#A96E50"/>
<rect x="1372" y="2055" width="64" height="64" fill="#8E5F45"/>
<rect x="1436" y="2055" width="64" height="64" fill="#825337"/>
<rect x="1500" y="2055" width="64" height="64" fill="#85533A"/>
<rect x="1564" y="2055" width="64" height="64" fill="#814F36"/>
<rect x="1628" y="2055" width="64" height="64" fill="#955D42"/>
<rect x="1692" y="2055" width="64" height="64" fill="#AB6F4D"/>
<rect x="1756" y="2055" width="64" height="64" fill="#B77C5A"/>
<rect x="1820" y="2055" width="64" height="64" fill="#B07458"/>
<rect x="1884" y="2055" width="64" height="64" fill="#D4BAA9"/>
<rect x="1948" y="2055" width="64" height="64" fill="#D5BAA7"/>
<rect x="2012" y="2055" width="64" height="64" fill="#D3B9A8"/>
<rect x="2076" y="2055" width="64" height="64" fill="#D9BFAD"/>
<rect x="732" y="2119" width="64" height="64" fill="#C6B49C"/>
<rect x="796" y="2119" width="64" height="64" fill="#C8B49B"/>
<rect x="860" y="2119" width="64" height="64" fill="#CDB9A1"/>
<rect x="924" y="2119" width="64" height="64" fill="#C4B29A"/>
<rect x="988" y="2119" width="64" height="64" fill="#CAB69D"/>
<rect x="1052" y="2119" width="64" height="64" fill="#CCB8A0"/>
<rect x="1116" y="2119" width="64" height="64" fill="#C7B59D"/>
<rect x="1180" y="2119" width="64" height="64" fill="#D0BAA3"/>
<rect x="1244" y="2119" width="64" height="64" fill="#AE7F63"/>
<rect x="1308" y="2119" width="64" height="64" fill="#A86F51"/>
<rect x="1372" y="2119" width="64" height="64" fill="#A0694A"/>
<rect x="1436" y="2119" width="64" height="64" fill="#9B6446"/>
<rect x="1500" y="2119" width="64" height="64" fill="#A2664A"/>
<rect x="1564" y="2119" width="64" height="64" fill="#A26548"/>
<rect x="1628" y="2119" width="64" height="64" fill="#B57655"/>
<rect x="1692" y="2119" width="64" height="64" fill="#BB8360"/>
<rect x="1756" y="2119" width="64" height="64" fill="#B9835F"/>
<rect x="1820" y="2119" width="64" height="64" fill="#D8BCA7"/>
<rect x="1884" y="2119" width="64" height="64" fill="#D2BDA8"/>
<rect x="1948" y="2119" width="64" height="64" fill="#D8BCA9"/>
<rect x="2012" y="2119" width="64" height="64" fill="#D6BCAB"/>
<rect x="2076" y="2119" width="64" height="64" fill="#DAC0AE"/>
<rect x="2140" y="2119" width="64" height="64" fill="#DBC1AF"/>
<rect x="2204" y="2119" width="64" height="64" fill="#D5BAA9"/>
<rect x="2268" y="2119" width="64" height="64" fill="#D7B9A7"/>
<rect x="604" y="2183" width="64" height="64" fill="#C4B397"/>
<rect x="668" y="2183" width="64" height="64" fill="#C9B59A"/>
<rect x="732" y="2183" width="64" height="64" fill="#C5B39B"/>
<rect x="796" y="2183" width="64" height="64" fill="#C7B29D"/>
<rect x="860" y="2183" width="64" height="64" fill="#CAB5A0"/>
<rect x="924" y="2183" width="64" height="64" fill="#C6B19C"/>
<rect x="988" y="2183" width="64" height="64" fill="#D0BCA3"/>
<rect x="1052" y="2183" width="64" height="64" fill="#C6B49C"/>
<rect x="1116" y="2183" width="64" height="64" fill="#CDB8A3"/>
<rect x="1180" y="2183" width="64" height="64" fill="#CCB6A1"/>
<rect x="1244" y="2183" width="64" height="64" fill="#C8B29B"/>
<rect x="1308" y="2183" width="64" height="64" fill="#AA7450"/>
<rect x="1372" y="2183" width="64" height="64" fill="#B37F5A"/>
<rect x="1436" y="2183" width="64" height="64" fill="#B37D59"/>
<rect x="1500" y="2183" width="64" height="64" fill="#AD7552"/>
<rect x="1564" y="2183" width="64" height="64" fill="#B37B58"/>
<rect x="1628" y="2183" width="64" height="64" fill="#C08A68"/>
<rect x="1692" y="2183" width="64" height="64" fill="#C38D69"/>
<rect x="1756" y="2183" width="64" height="64" fill="#B28460"/>
<rect x="1820" y="2183" width="64" height="64" fill="#DCC2B1"/>
<rect x="1884" y="2183" width="64" height="64" fill="#D6BCAB"/>
<rect x="1948" y="2183" width="64" height="64" fill="#D4B9A6"/>
<rect x="2012" y="2183" width="64" height="64" fill="#D9BFAD"/>
<rect x="2076" y="2183" width="64" height="64" fill="#D9BFAD"/>
<rect x="2140" y="2183" width="64" height="64" fill="#D9BFAD"/>
<rect x="2204" y="2183" width="64" height="64" fill="#DCBFAD"/>
<rect x="2268" y="2183" width="64" height="64" fill="#DEBFAB"/>
<rect x="2332" y="2183" width="64" height="64" fill="#DCBDA9"/>
<rect x="2396" y="2183" width="64" height="64" fill="#DAB9A6"/>
<rect x="604" y="2247" width="64" height="64" fill="#BCA88F"/>
<rect x="668" y="2247" width="64" height="64" fill="#C0AC93"/>
<rect x="732" y="2247" width="64" height="64" fill="#C3AD95"/>
<rect x="796" y="2247" width="64" height="64" fill="#C4B098"/>
<rect x="860" y="2247" width="64" height="64" fill="#C7B59D"/>
<rect x="924" y="2247" width="64" height="64" fill="#C7B29F"/>
<rect x="988" y="2247" width="64" height="64" fill="#CBB6A1"/>
<rect x="1052" y="2247" width="64" height="64" fill="#C8B39E"/>
<rect x="1116" y="2247" width="64" height="64" fill="#CBB79E"/>
<rect x="1180" y="2247" width="64" height="64" fill="#CAB5A0"/>
<rect x="1244" y="2247" width="64" height="64" fill="#CBB5A0"/>
<rect x="1308" y="2247" width="64" height="64" fill="#B27C5A"/>
<rect x="1372" y="2247" width="64" height="64" fill="#B7815D"/>
<rect x="1436" y="2247" width="64" height="64" fill="#B98361"/>
<rect x="1500" y="2247" width="64" height="64" fill="#BA8163"/>
<rect x="1564" y="2247" width="64" height="64" fill="#BB8264"/>
<rect x="1628" y="2247" width="64" height="64" fill="#C18B67"/>
<rect x="1692" y="2247" width="64" height="64" fill="#BF8967"/>
<rect x="1756" y="2247" width="64" height="64" fill="#B99F86"/>
<rect x="1820" y="2247" width="64" height="64" fill="#DAC1AC"/>
<rect x="1884" y="2247" width="64" height="64" fill="#D7BBA8"/>
<rect x="1948" y="2247" width="64" height="64" fill="#D5BFAA"/>
<rect x="2012" y="2247" width="64" height="64" fill="#D9BFAD"/>
<rect x="2076" y="2247" width="64" height="64" fill="#DCC2B1"/>
<rect x="2140" y="2247" width="64" height="64" fill="#E4C9B8"/>
<rect x="2204" y="2247" width="64" height="64" fill="#DCC3AF"/>
<rect x="2268" y="2247" width="64" height="64" fill="#D7B9A7"/>
<rect x="2332" y="2247" width="64" height="64" fill="#DEBFAA"/>
<rect x="2396" y="2247" width="64" height="64" fill="#E1C2AE"/>
<rect x="604" y="2311" width="64" height="64" fill="#C1AB93"/>
<rect x="668" y="2311" width="64" height="64" fill="#BDA990"/>
<rect x="732" y="2311" width="64" height="64" fill="#C3AF97"/>
<rect x="796" y="2311" width="64" height="64" fill="#C2AE96"/>
<rect x="860" y="2311" width="64" height="64" fill="#C7B59D"/>
<rect x="924" y="2311" width="64" height="64" fill="#C7B59D"/>
<rect x="988" y="2311" width="64" height="64" fill="#CBB6A1"/>
<rect x="1052" y="2311" width="64" height="64" fill="#C9B59D"/>
<rect x="1116" y="2311" width="64" height="64" fill="#C8B69E"/>
<rect x="1180" y="2311" width="64" height="64" fill="#B49E87"/>
<rect x="1116" y="2375" width="64" height="64" fill="#B49E87"/>
<rect x="1948" y="2375" width="64" height="64" fill="#B49E87"/>
<rect x="1244" y="2311" width="64" height="64" fill="#AC8E74"/>
<rect x="1308" y="2311" width="64" height="64" fill="#B59B82"/>
<rect x="1372" y="2311" width="64" height="64" fill="#CAA787"/>
<rect x="1436" y="2311" width="64" height="64" fill="#BD8765"/>
<rect x="1500" y="2311" width="64" height="64" fill="#BD8466"/>
<rect x="1564" y="2311" width="64" height="64" fill="#C08769"/>
<rect x="1628" y="2311" width="64" height="64" fill="#C38B6A"/>
<rect x="1692" y="2311" width="64" height="64" fill="#C1A691"/>
<rect x="1756" y="2311" width="64" height="64" fill="#CAB19D"/>
<rect x="1820" y="2311" width="64" height="64" fill="#BEA088"/>
<rect x="1884" y="2311" width="64" height="64" fill="#D5BAA5"/>
<rect x="1948" y="2311" width="64" height="64" fill="#DBC0AD"/>
<rect x="2012" y="2311" width="64" height="64" fill="#DBC1AF"/>
<rect x="2076" y="2311" width="64" height="64" fill="#DBC1AF"/>
<rect x="2140" y="2311" width="64" height="64" fill="#DDC3B2"/>
<rect x="2204" y="2311" width="64" height="64" fill="#DCC2B1"/>
<rect x="2268" y="2311" width="64" height="64" fill="#DBBCA8"/>
<rect x="2332" y="2311" width="64" height="64" fill="#DFC0AE"/>
<rect x="2396" y="2311" width="64" height="64" fill="#E6C5B4"/>
<rect x="604" y="2375" width="64" height="64" fill="#C3AE93"/>
<rect x="668" y="2375" width="64" height="64" fill="#C2AC94"/>
<rect x="732" y="2375" width="64" height="64" fill="#BCA890"/>
<rect x="796" y="2375" width="64" height="64" fill="#C5B199"/>
<rect x="860" y="2375" width="64" height="64" fill="#C3B199"/>
<rect x="924" y="2375" width="64" height="64" fill="#C8B69E"/>
<rect x="988" y="2375" width="64" height="64" fill="#CAB5A0"/>
<rect x="1052" y="2375" width="64" height="64" fill="#CBB6A1"/>
<rect x="1180" y="2375" width="64" height="64" fill="#BCA18C"/>
<rect x="1244" y="2375" width="64" height="64" fill="#C7B19A"/>
<rect x="1308" y="2375" width="64" height="64" fill="#B59B82"/>
<rect x="1372" y="2375" width="64" height="64" fill="#BCA289"/>
<rect x="1436" y="2375" width="64" height="64" fill="#C8AC94"/>
<rect x="1500" y="2375" width="64" height="64" fill="#C48D6E"/>
<rect x="1564" y="2375" width="64" height="64" fill="#C38D6B"/>
<rect x="1628" y="2375" width="64" height="64" fill="#D0B69D"/>
<rect x="1692" y="2375" width="64" height="64" fill="#DCC1AE"/>
<rect x="1756" y="2375" width="64" height="64" fill="#D9BEAA"/>
<rect x="1820" y="2375" width="64" height="64" fill="#D7B9A7"/>
<rect x="1884" y="2375" width="64" height="64" fill="#C8AC96"/>
<rect x="2012" y="2375" width="64" height="64" fill="#DAC1AC"/>
<rect x="2076" y="2375" width="64" height="64" fill="#DCC2B1"/>
<rect x="2140" y="2375" width="64" height="64" fill="#DDC3B2"/>
<rect x="2204" y="2375" width="64" height="64" fill="#D8BBA8"/>
<rect x="2268" y="2375" width="64" height="64" fill="#DBC0AD"/>
<rect x="2332" y="2375" width="64" height="64" fill="#E1C5B0"/>
<rect x="2396" y="2375" width="64" height="64" fill="#E2C3AF"/>
<rect x="604" y="2439" width="64" height="64" fill="#C1AB93"/>
<rect x="668" y="2439" width="64" height="64" fill="#C2AC94"/>
<rect x="732" y="2439" width="64" height="64" fill="#C2AC94"/>
<rect x="796" y="2439" width="64" height="64" fill="#BFAB92"/>
<rect x="860" y="2439" width="64" height="64" fill="#CBB79C"/>
<rect x="924" y="2439" width="64" height="64" fill="#CBB79F"/>
<rect x="988" y="2439" width="64" height="64" fill="#C5B39B"/>
<rect x="1052" y="2439" width="64" height="64" fill="#C8B69E"/>
<rect x="1116" y="2439" width="64" height="64" fill="#CAB49D"/>
<rect x="1180" y="2439" width="64" height="64" fill="#CDB7A0"/>
<rect x="1244" y="2439" width="64" height="64" fill="#C7B19C"/>
<rect x="1308" y="2439" width="64" height="64" fill="#C8B29D"/>
<rect x="1372" y="2439" width="64" height="64" fill="#CAB19D"/>
<rect x="1436" y="2439" width="64" height="64" fill="#D1B8A2"/>
<rect x="1500" y="2439" width="64" height="64" fill="#C4957B"/>
<rect x="1564" y="2439" width="64" height="64" fill="#B67B59"/>
<rect x="1628" y="2439" width="64" height="64" fill="#9A6344"/>
<rect x="1692" y="2439" width="64" height="64" fill="#D4B9A6"/>
<rect x="1756" y="2439" width="64" height="64" fill="#D7BBA8"/>
<rect x="1820" y="2439" width="64" height="64" fill="#D9BEAA"/>
<rect x="1884" y="2439" width="64" height="64" fill="#DBC0AD"/>
<rect x="1948" y="2439" width="64" height="64" fill="#DBC0AD"/>
<rect x="2012" y="2439" width="64" height="64" fill="#DEC5B1"/>
<rect x="2076" y="2439" width="64" height="64" fill="#DCC2B1"/>
<rect x="2140" y="2439" width="64" height="64" fill="#D8BDAC"/>
<rect x="2204" y="2439" width="64" height="64" fill="#DDC2AF"/>
<rect x="2268" y="2439" width="64" height="64" fill="#E1C6B5"/>
<rect x="2332" y="2439" width="64" height="64" fill="#E1C4B2"/>
<rect x="2396" y="2439" width="64" height="64" fill="#E1C4B2"/>
<rect x="604" y="2503" width="64" height="64" fill="#BCA88D"/>
<rect x="668" y="2503" width="64" height="64" fill="#C4AE96"/>
<rect x="732" y="2503" width="64" height="64" fill="#C2AE95"/>
<rect x="796" y="2503" width="64" height="64" fill="#C2AE95"/>
<rect x="860" y="2503" width="64" height="64" fill="#C8B499"/>
<rect x="924" y="2503" width="64" height="64" fill="#C8B69E"/>
<rect x="988" y="2503" width="64" height="64" fill="#C9B59D"/>
<rect x="1052" y="2503" width="64" height="64" fill="#CBB79C"/>
<rect x="1116" y="2503" width="64" height="64" fill="#C7B39A"/>
<rect x="1180" y="2503" width="64" height="64" fill="#C4B098"/>
<rect x="1244" y="2503" width="64" height="64" fill="#C6B19C"/>
<rect x="1308" y="2503" width="64" height="64" fill="#CBB6A1"/>
<rect x="1372" y="2503" width="64" height="64" fill="#CFB9A4"/>
<rect x="1436" y="2503" width="64" height="64" fill="#D0BAA5"/>
<rect x="1564" y="2439" width="64" height="64" fill="#D0BAA5"/>
<rect x="1628" y="2439" width="64" height="64" fill="#D0BAA5"/>
<rect x="1500" y="2503" width="64" height="64" fill="#DAC3AE"/>
<rect x="1564" y="2503" width="64" height="64" fill="#DAC3AE"/>
<rect x="1628" y="2503" width="64" height="64" fill="#CDB59B"/>
<rect x="1692" y="2503" width="64" height="64" fill="#D7BBA8"/>
<rect x="1756" y="2503" width="64" height="64" fill="#D9BEAA"/>
<rect x="1820" y="2503" width="64" height="64" fill="#D9BFAB"/>
<rect x="1884" y="2503" width="64" height="64" fill="#DABFAB"/>
<rect x="1948" y="2503" width="64" height="64" fill="#DBC2AD"/>
<rect x="2012" y="2503" width="64" height="64" fill="#DEC5B1"/>
<rect x="2076" y="2503" width="64" height="64" fill="#DBC0AF"/>
<rect x="2140" y="2503" width="64" height="64" fill="#DFC4B3"/>
<rect x="2204" y="2503" width="64" height="64" fill="#DEC3B0"/>
<rect x="2268" y="2503" width="64" height="64" fill="#E4C5B3"/>
<rect x="2332" y="2503" width="64" height="64" fill="#E1C4B2"/>
<rect x="2396" y="2503" width="64" height="64" fill="#E6C5B4"/>
<rect x="1372" y="1223" width="64" height="64" fill="#D4C4BE"/>
<rect x="1244" y="1223" width="64" height="64" fill="#D4C4BE"/>
<rect x="1308" y="1223" width="64" height="64" fill="#67473C"/>
<rect x="1692" y="1095" width="64" height="64" fill="#C48461"/>
<rect x="1308" y="1095" width="64" height="64" fill="#C48461"/>
<rect x="1756" y="1095" width="64" height="64" fill="#CD8C6E"/>
<rect x="1244" y="1095" width="64" height="64" fill="#CD8C6E"/>
<rect x="1820" y="1159" width="64" height="64" fill="#402722"/>
<rect x="1180" y="1159" width="64" height="64" fill="#402722"/>
</g>
<defs>
<linearGradient id="paint0_linear" x1="1494.5" y1="0" x2="1494.5" y2="2527" gradientUnits="userSpaceOnUse">
<stop stop-color="#FF9637"/>
<stop offset="1" stop-color="white" stop-opacity="0"/>
</linearGradient>
<linearGradient id="paint1_linear" x1="1494.5" y1="0" x2="1494.5" y2="2527" gradientUnits="userSpaceOnUse">
<stop stop-color="white" stop-opacity="0"/>
<stop offset="0.9999" stop-color="#FF9637"/>
<stop offset="1" stop-color="#FFBF85" stop-opacity="0.611746"/>
</linearGradient>
</defs>
</svg>
